<svg xmlns="http://www.w3.org/2000/svg" width="17.063" height="27.039" viewBox="0 0 17.063 27.039"><defs><style>.a{fill-rule:evenodd;}</style></defs><path class="a" d="M87.565,36.713V34.365a2.02,2.02,0,0,0-3.983,0v2.348H83.2v-.167s.046-.521-.38-.521-.379.521-.379.521v.167H79.937V59.722H92.663L97,54.865V36.713Zm-1.991-3.236c1.3,0,1.232,1.461,1.232,1.461v1.775H84.341V34.934S84.269,33.477,85.574,33.477Zm1.232,4.6v3.546s.166,2.3-1.814,2.3-1.789-2.3-1.789-2.3V38.073Zm8.735,15.153-4.161,0,.016,5.045H81.3v-20.2h1.147v4.294a2.575,2.575,0,0,0,5.121,0V38.073h7.976Z" transform="translate(-79.937 -32.683)"/></svg>