<svg xmlns="http://www.w3.org/2000/svg" width="20" height="20" viewBox="0 0 20 20"><defs><style>.a{fill:#005ea2;}</style></defs><path class="a" d="M1853.733,849.031a10,10,0,1,0,10,10A10,10,0,0,0,1853.733,849.031Zm3.758,3.968.715-.478a3.406,3.406,0,0,1-.25-1.149c.174-.083.879.286,1.475.912-.4,1.491-1.341,1.314-1.341,1.314S1857.4,853.582,1857.491,853Zm-6.027,8.8a7.276,7.276,0,0,1-.492,1.119,1.626,1.626,0,0,1-.493.671,1.5,1.5,0,0,0-.358.494l-.044.76a3.428,3.428,0,0,0,.221.852c.134.223-.479,1.556-.479,1.556-.388-.077-.6-.528-.74-.884s-.313-.55-.268-.953-.348-.614-.48-.839a1.848,1.848,0,0,1-.314-.761c0-.225-.492-.538-.492-.538a5.128,5.128,0,0,1-1.029-.581,4.656,4.656,0,0,1-.315-1.255,5,5,0,0,1,.135-1.117s.361-.271.133-.493a1.632,1.632,0,0,1-.268-.807l-.4-.447a2.791,2.791,0,0,1-.357-.672,1.3,1.3,0,0,1,.044-.582,5.537,5.537,0,0,0-.089-.85c1.672-4.1,4.476-5.058,4.476-5.058l.225.938a1.74,1.74,0,0,1-.76.046,1.448,1.448,0,0,0-.405-.09l-.357.492a4.471,4.471,0,0,0-.181.493.844.844,0,0,0,.089.447s.627.045.627-.134a.393.393,0,0,0-.088-.268l-.09-.314a2.867,2.867,0,0,1,1.476-.135c1.076.091.674.851,1.122,1.031s-.36.8-.538,1.163-.448-.448-.448-.448.269-.31-.179-.4-.744.806-.517.763.472.241.428.464a2.432,2.432,0,0,1-.27.7,2.568,2.568,0,0,1-.71.857s-.228-.139-.095.129-.045.9-.045,1.075-.537-.314-.626-.763-.615-.057-.794-.011a.577.577,0,0,1-.593-.3c-.09-.224-.9.447-1.122.581s-.132.494.225.314.67-.045.582.315-.447.134-.4.356.4.448.491.763.942.045,1.21-.09,1.03-.269,1.119.09.94.49,1.254.58a2.761,2.761,0,0,1,1.3.493C1852.135,860.908,1851.51,861.58,1851.464,861.8Zm2.013-10.476c-.045.448-.759,1.029-.669,1.209s0,.947-.628.274-1.255-.9-1.208-1.349c.01-.09.648-.23.658-.387a2.5,2.5,0,0,1,2.581-.492C1853.941,851.028,1853.523,850.88,1853.477,851.328Zm8.1,7.985a1.082,1.082,0,0,0,.837.475,9.654,9.654,0,0,1-3.448,6.15.752.752,0,0,1-.238-.895l.134-.717.076-1.208s0-1.253-1.2-.658a6.2,6.2,0,0,1-2.045.418c-1.3.09-1.083-2.647-1.083-2.647,0-4.1,3.142-1.005,3.142-1.005,1.793,1.192,2.03-.989,2.03-.989l1.313-.475.12-.6-.191-.835-1.907-.787a1.785,1.785,0,0,0,.306,1.382s-.163.865-.566.642l-1.1-.555a1.127,1.127,0,0,0-.969.2,2.275,2.275,0,0,1-1.61-.017,1.3,1.3,0,0,1,.71-.912l.513-.34a2.86,2.86,0,0,1-.016-1.09c.118-.477.328-.059.806-.418s.805.7,1.521.583.358-.239.838-.478.834.478.834.478l.954.118a5.668,5.668,0,0,1-.084-.8c.605,1.039,1.49,3.81,1.162,4.3l-.36-.162h-1.194Z" transform="translate(-1843.733 -849.031)"/></svg>