<svg xmlns="http://www.w3.org/2000/svg" width="20" height="20" viewBox="0 0 20 20"><defs><style>.a{fill:#fff;}</style></defs><g transform="translate(-1627.941 -95.804)"><path class="a" d="M1637.941,95.8a10,10,0,1,0,10,10A10.011,10.011,0,0,0,1637.941,95.8Zm5.766,15.511v-.4c0-1.363-1.576-1.861-2.419-2.221-.3-.131-.881-.407-1.472-.7a.807.807,0,0,1-.4-.578l-.065-.647a2.777,2.777,0,0,0,.928-1.66h.1a.344.344,0,0,0,.335-.267l.16-.988a.328.328,0,0,0-.339-.339l.01-.061a3.315,3.315,0,0,0,.041-.345c.011-.09.019-.183.022-.279a2.245,2.245,0,0,0-.192-1.1,2.617,2.617,0,0,0-.616-.895c-.781-.74-1.687-1.028-2.459-.433a1.786,1.786,0,0,0-1.6.678,2.1,2.1,0,0,0-.466.944,2.955,2.955,0,0,0-.107.714,2.84,2.84,0,0,0,.073.784.331.331,0,0,0-.308.335l.159.989a.344.344,0,0,0,.336.267h.091a3.309,3.309,0,0,0,.936,1.69l-.063.625a.809.809,0,0,1-.4.579c-.571.28-1.134.548-1.471.686-.793.327-2.419.859-2.419,2.222v.309a7.986,7.986,0,1,1,11.61.085Z"/></g></svg>